<?xml version="1.0" standalone="no"?>
<!DOCTYPE svg PUBLIC "-//W3C//DTD SVG 20010904//EN"
 "http://www.w3.org/TR/2001/REC-SVG-20010904/DTD/svg10.dtd">
<svg version="1.0" xmlns="http://www.w3.org/2000/svg"
 width="500.000000pt" height="500.000000pt" viewBox="0 0 500.000000 500.000000"
 preserveAspectRatio="xMidYMid meet">

<g transform="translate(0.000000,500.000000) scale(0.100000,-0.100000)"
fill="#000000" stroke="none">
<path d="M1804 4895 c-325 -96 -615 -240 -851 -422 -66 -50 -242 -204 -269
-234 -38 -42 -149 -192 -196 -264 -208 -316 -340 -703 -383 -1129 -20 -201
-20 -611 0 -748 34 -222 73 -369 142 -528 58 -136 107 -218 214 -360 113 -150
238 -277 345 -351 12 -7 56 -38 98 -67 209 -145 456 -231 765 -268 146 -17
160 -17 305 -1 296 33 533 116 751 262 231 156 286 208 536 505 39 46 129 182
129 194 0 2 -46 7 -102 11 -129 8 -273 37 -357 70 -147 57 -284 162 -351 268
-19 31 -37 56 -40 57 -3 0 -14 -15 -25 -32 -47 -80 -205 -217 -312 -272 -147
-74 -260 -104 -425 -113 -275 -14 -487 62 -676 242 -157 148 -262 352 -316
612 -35 167 -45 772 -17 963 5 30 14 91 20 135 40 264 155 560 309 795 146
223 439 485 717 642 44 25 87 48 95 51 44 16 -35 3 -106 -18z"/>
<path d="M2843 4605 c-319 -41 -669 -157 -879 -291 -92 -58 -261 -236 -313
-327 -105 -186 -158 -359 -192 -632 -19 -151 -21 -200 -15 -445 8 -354 15
-422 50 -494 41 -83 105 -127 228 -156 51 -11 67 -11 135 4 116 25 171 65 222
161 l26 50 6 550 c6 579 5 573 51 659 131 244 445 294 633 101 62 -63 99 -130
116 -212 9 -40 15 -216 18 -553 l6 -495 28 -53 c41 -78 89 -126 159 -158 53
-25 75 -29 143 -28 66 0 89 5 130 26 92 48 165 149 185 255 6 35 10 256 10
567 0 318 4 525 10 548 13 47 61 78 119 78 37 0 49 -6 98 -52 124 -118 256
-361 306 -563 50 -200 52 -226 52 -575 0 -355 2 -335 -56 -610 -33 -153 -127
-412 -199 -545 -136 -252 -326 -487 -529 -655 -30 -25 -71 -59 -90 -76 -107
-92 -382 -250 -606 -348 -172 -75 -511 -195 -556 -197 -16 -1 -10 -4 16 -10
68 -14 382 -10 505 6 326 43 684 159 942 305 38 22 72 40 74 40 9 0 215 140
284 192 63 49 244 220 326 311 105 115 238 310 331 483 87 162 141 305 209
549 21 78 52 250 65 360 18 155 23 484 9 594 -62 512 -299 945 -685 1253 -369
294 -902 443 -1372 383z"/>
</g>
</svg>
