<svg xmlns="http://www.w3.org/2000/svg" width="800" height="200" viewBox="0 0 800 200" version="1.1"><path d="M 530.364 46.170 C 524.609 48.956, 524.801 59.221, 530.657 61.890 C 537.869 65.175, 545 61.253, 545 54 C 545 46.739, 537.488 42.720, 530.364 46.170 M 385.792 48.402 C 360.347 55.251, 360.880 84.253, 386.637 94.361 C 397.051 98.448, 400.060 100.215, 401.565 103.126 C 406.561 112.787, 393.184 118.136, 376.839 113.013 C 373.353 111.920, 370.211 111.020, 369.859 111.013 C 368.408 110.984, 365.927 125.336, 367.236 126.183 C 377.376 132.744, 405.678 130.351, 414.376 122.196 C 428.612 108.850, 422.067 90.312, 399.801 80.916 C 389.815 76.702, 384.310 72.239, 385.447 69.278 C 385.751 68.485, 386 67.417, 386 66.904 C 386 62.663, 398.491 60.769, 407.943 63.576 C 410.861 64.442, 413.593 64.780, 414.014 64.326 C 415.622 62.589, 418.136 51.736, 417.156 50.756 C 413.877 47.477, 394.603 46.031, 385.792 48.402 M 157.806 77.250 C 157.419 114.282, 156.668 116.064, 142.023 114.736 C 135.386 114.134, 135.896 113.503, 134.446 124.107 C 133.706 129.520, 134.743 130, 147.182 130 C 171.698 130, 175.203 123.773, 175.747 79.250 L 176.129 48 167.120 48 L 158.111 48 157.806 77.250 M 636.500 55.842 C 629.500 57.521, 629.500 57.521, 629.202 63.761 C 628.905 70, 628.905 70, 624.952 70 C 621 70, 621 70, 621 77 C 621 84, 621 84, 624.917 84 L 628.835 84 629.167 101.250 C 629.631 125.279, 632.067 129.170, 647.076 129.852 C 659.006 130.394, 660.003 129.959, 659.986 124.231 C 659.963 115.992, 659.367 115, 654.440 115 C 647.729 115, 647 113.263, 647 97.277 L 647 84 653.500 84 L 660 84 660 77 L 660 70 653.500 70 L 647 70 647 62 C 647 52.802, 647.631 53.172, 636.500 55.842 M 202.500 69.699 C 198.927 70.174, 189.807 72.969, 188.764 73.909 C 185.033 77.270, 191.592 85.640, 196.582 83.887 C 203.923 81.307, 211.950 81.386, 215.365 84.073 C 219.221 87.106, 218.888 90, 214.684 90 C 196.849 90, 184 99.153, 184 111.858 C 184 128.306, 203.007 135.988, 217.631 125.450 C 219.634 124.007, 219.800 124.067, 220.400 126.457 C 221.018 128.919, 221.296 129, 229.131 129 L 237.223 129 236.816 107.750 C 236.165 73.837, 229.228 66.145, 202.500 69.699 M 323.500 69.403 C 322.950 69.610, 320.025 70.298, 317 70.932 C 308.285 72.758, 307.556 73.665, 309.482 80.291 C 311.077 85.778, 311.077 85.778, 316.049 83.889 C 326.078 80.079, 338 82.351, 338 88.073 C 338 89.651, 337.284 90, 334.049 90 C 311.142 90, 296.279 107.944, 306.868 122.815 C 312.851 131.217, 332.773 132.648, 337.491 125.014 C 338.554 123.295, 339.845 123.888, 340.180 126.250 C 340.478 128.344, 341.063 128.520, 348.620 128.788 L 356.740 129.077 356.289 108.288 C 355.584 75.799, 343.762 61.778, 323.500 69.403 M 451.081 70.522 C 422.795 78.473, 420.080 120.413, 447.328 128.505 C 457.320 131.472, 476.680 129.887, 475.605 126.190 C 475.335 125.260, 474.818 122.401, 474.456 119.835 C 473.798 115.169, 473.798 115.169, 466.599 115.714 C 455.742 116.535, 448.848 111.834, 447.474 102.674 C 445.524 89.671, 455.503 80.825, 468.741 83.823 C 472.981 84.783, 472.981 84.783, 473.908 81.142 C 476.260 71.907, 476.253 71.302, 473.801 70.618 C 468.308 69.084, 456.376 69.034, 451.081 70.522 M 509.481 70.394 C 506.358 71.755, 500.124 78.148, 499.837 80.285 C 499.747 80.953, 499.410 79.025, 499.087 76 C 498.500 70.500, 498.500 70.500, 490.750 70.208 L 483 69.916 483 99.458 L 483 129 492.500 129 L 502 129 502 111.950 C 502 89.816, 503.981 86, 515.468 86 C 519 86, 519 86, 519 77.500 C 519 68.142, 517.396 66.945, 509.481 70.394 M 585.994 69.934 C 581.884 71.184, 577.624 73.652, 575.498 76.014 C 573.500 78.233, 573.500 78.233, 573 74.367 C 572.500 70.500, 572.500 70.500, 564.750 70.208 L 557 69.916 557 111.458 L 557 153 566 153 L 575 153 575 139.667 C 575 124.565, 575.117 124.235, 579.383 127.273 C 586.402 132.270, 601.498 130.292, 608.257 123.488 C 629.089 102.519, 612.225 61.955, 585.994 69.934 M 241 70.509 C 241 70.919, 259.083 120.874, 261.540 127.250 C 263.112 131.330, 280.641 129.622, 282.073 125.250 C 282.749 123.188, 287.508 110.283, 292.651 96.572 C 297.793 82.862, 302 71.275, 302 70.822 C 302 67.049, 282.999 70.301, 281.975 74.250 C 281.369 76.588, 279.606 83, 278.057 88.500 C 276.508 94, 274.664 101.090, 273.960 104.256 C 272.400 111.265, 272.078 111.013, 269.387 100.674 C 268.217 96.178, 265.779 87.438, 263.970 81.250 L 260.681 70 250.840 70 C 245.428 70, 241 70.229, 241 70.509 M 527 99.500 L 527 129 536 129 L 545 129 545 99.500 L 545 70 536 70 L 527 70 527 99.500 M 583.309 84.128 C 574.185 86.697, 571.657 107.652, 579.707 113.984 C 585.464 118.513, 593.755 115.952, 597.086 108.617 C 603.044 95.498, 594.823 80.887, 583.309 84.128 M 211.836 101.933 C 202.332 103.811, 198.744 111.487, 205.141 116.258 C 210.850 120.516, 218.397 115.109, 218.461 106.716 C 218.504 101, 218.087 100.698, 211.836 101.933 M 331.091 102.074 C 321.376 104.004, 318.213 113.849, 326.318 116.931 C 332.563 119.305, 338.408 114.366, 338.463 106.668 C 338.505 100.898, 338.143 100.673, 331.091 102.074" stroke="none" fill="#2f2d25" fill-rule="evenodd"/><path d="M 0 100.001 L 0 200.002 400.250 199.751 L 800.500 199.500 800.755 99.750 L 801.010 0 400.505 0 L 0 0 0 100.001 M 530.364 46.170 C 524.609 48.956, 524.801 59.221, 530.657 61.890 C 537.869 65.175, 545 61.253, 545 54 C 545 46.739, 537.488 42.720, 530.364 46.170 M 385.792 48.402 C 360.347 55.251, 360.880 84.253, 386.637 94.361 C 397.051 98.448, 400.060 100.215, 401.565 103.126 C 406.561 112.787, 393.184 118.136, 376.839 113.013 C 373.353 111.920, 370.211 111.020, 369.859 111.013 C 368.408 110.984, 365.927 125.336, 367.236 126.183 C 377.376 132.744, 405.678 130.351, 414.376 122.196 C 428.612 108.850, 422.067 90.312, 399.801 80.916 C 389.815 76.702, 384.310 72.239, 385.447 69.278 C 385.751 68.485, 386 67.417, 386 66.904 C 386 62.663, 398.491 60.769, 407.943 63.576 C 410.861 64.442, 413.593 64.780, 414.014 64.326 C 415.622 62.589, 418.136 51.736, 417.156 50.756 C 413.877 47.477, 394.603 46.031, 385.792 48.402 M 157.806 77.250 C 157.419 114.282, 156.668 116.064, 142.023 114.736 C 135.386 114.134, 135.896 113.503, 134.446 124.107 C 133.706 129.520, 134.743 130, 147.182 130 C 171.698 130, 175.203 123.773, 175.747 79.250 L 176.129 48 167.120 48 L 158.111 48 157.806 77.250 M 636.500 55.842 C 629.500 57.521, 629.500 57.521, 629.202 63.761 C 628.905 70, 628.905 70, 624.952 70 C 621 70, 621 70, 621 77 C 621 84, 621 84, 624.917 84 L 628.835 84 629.167 101.250 C 629.631 125.279, 632.067 129.170, 647.076 129.852 C 659.006 130.394, 660.003 129.959, 659.986 124.231 C 659.963 115.992, 659.367 115, 654.440 115 C 647.729 115, 647 113.263, 647 97.277 L 647 84 653.500 84 L 660 84 660 77 L 660 70 653.500 70 L 647 70 647 62 C 647 52.802, 647.631 53.172, 636.500 55.842 M 202.500 69.699 C 198.927 70.174, 189.807 72.969, 188.764 73.909 C 185.033 77.270, 191.592 85.640, 196.582 83.887 C 203.923 81.307, 211.950 81.386, 215.365 84.073 C 219.221 87.106, 218.888 90, 214.684 90 C 196.849 90, 184 99.153, 184 111.858 C 184 128.306, 203.007 135.988, 217.631 125.450 C 219.634 124.007, 219.800 124.067, 220.400 126.457 C 221.018 128.919, 221.296 129, 229.131 129 L 237.223 129 236.816 107.750 C 236.165 73.837, 229.228 66.145, 202.500 69.699 M 323.500 69.403 C 322.950 69.610, 320.025 70.298, 317 70.932 C 308.285 72.758, 307.556 73.665, 309.482 80.291 C 311.077 85.778, 311.077 85.778, 316.049 83.889 C 326.078 80.079, 338 82.351, 338 88.073 C 338 89.651, 337.284 90, 334.049 90 C 311.142 90, 296.279 107.944, 306.868 122.815 C 312.851 131.217, 332.773 132.648, 337.491 125.014 C 338.554 123.295, 339.845 123.888, 340.180 126.250 C 340.478 128.344, 341.063 128.520, 348.620 128.788 L 356.740 129.077 356.289 108.288 C 355.584 75.799, 343.762 61.778, 323.500 69.403 M 451.081 70.522 C 422.795 78.473, 420.080 120.413, 447.328 128.505 C 457.320 131.472, 476.680 129.887, 475.605 126.190 C 475.335 125.260, 474.818 122.401, 474.456 119.835 C 473.798 115.169, 473.798 115.169, 466.599 115.714 C 455.742 116.535, 448.848 111.834, 447.474 102.674 C 445.524 89.671, 455.503 80.825, 468.741 83.823 C 472.981 84.783, 472.981 84.783, 473.908 81.142 C 476.260 71.907, 476.253 71.302, 473.801 70.618 C 468.308 69.084, 456.376 69.034, 451.081 70.522 M 509.481 70.394 C 506.358 71.755, 500.124 78.148, 499.837 80.285 C 499.747 80.953, 499.410 79.025, 499.087 76 C 498.500 70.500, 498.500 70.500, 490.750 70.208 L 483 69.916 483 99.458 L 483 129 492.500 129 L 502 129 502 111.950 C 502 89.816, 503.981 86, 515.468 86 C 519 86, 519 86, 519 77.500 C 519 68.142, 517.396 66.945, 509.481 70.394 M 585.994 69.934 C 581.884 71.184, 577.624 73.652, 575.498 76.014 C 573.500 78.233, 573.500 78.233, 573 74.367 C 572.500 70.500, 572.500 70.500, 564.750 70.208 L 557 69.916 557 111.458 L 557 153 566 153 L 575 153 575 139.667 C 575 124.565, 575.117 124.235, 579.383 127.273 C 586.402 132.270, 601.498 130.292, 608.257 123.488 C 629.089 102.519, 612.225 61.955, 585.994 69.934 M 241 70.509 C 241 70.919, 259.083 120.874, 261.540 127.250 C 263.112 131.330, 280.641 129.622, 282.073 125.250 C 282.749 123.188, 287.508 110.283, 292.651 96.572 C 297.793 82.862, 302 71.275, 302 70.822 C 302 67.049, 282.999 70.301, 281.975 74.250 C 281.369 76.588, 279.606 83, 278.057 88.500 C 276.508 94, 274.664 101.090, 273.960 104.256 C 272.400 111.265, 272.078 111.013, 269.387 100.674 C 268.217 96.178, 265.779 87.438, 263.970 81.250 L 260.681 70 250.840 70 C 245.428 70, 241 70.229, 241 70.509 M 527 99.500 L 527 129 536 129 L 545 129 545 99.500 L 545 70 536 70 L 527 70 527 99.500 M 583.309 84.128 C 574.185 86.697, 571.657 107.652, 579.707 113.984 C 585.464 118.513, 593.755 115.952, 597.086 108.617 C 603.044 95.498, 594.823 80.887, 583.309 84.128 M 211.836 101.933 C 202.332 103.811, 198.744 111.487, 205.141 116.258 C 210.850 120.516, 218.397 115.109, 218.461 106.716 C 218.504 101, 218.087 100.698, 211.836 101.933 M 331.091 102.074 C 321.376 104.004, 318.213 113.849, 326.318 116.931 C 332.563 119.305, 338.408 114.366, 338.463 106.668 C 338.505 100.898, 338.143 100.673, 331.091 102.074" stroke="none" fill="#fbe305" fill-rule="evenodd"/></svg>