<?xml version="1.0" standalone="no"?>
<!DOCTYPE svg PUBLIC "-//W3C//DTD SVG 20010904//EN"
 "http://www.w3.org/TR/2001/REC-SVG-20010904/DTD/svg10.dtd">
<svg version="1.0" xmlns="http://www.w3.org/2000/svg"
 width="192.000000pt" height="192.000000pt" viewBox="0 0 192.000000 192.000000"
 preserveAspectRatio="xMidYMid meet">
<metadata>
Created by potrace 1.14, written by Peter Selinger 2001-2017
</metadata>
<g transform="translate(0.000000,192.000000) scale(0.100000,-0.100000)"
fill="#000000" stroke="none">
<path d="M868 1915 c-3 -3 -24 -8 -48 -10 -23 -2 -56 -13 -74 -24 -17 -11 -51
-31 -76 -45 -63 -34 -180 -166 -180 -202 0 -17 -33 -74 -42 -74 -5 0 -8 -6 -8
-14 0 -8 -12 -38 -27 -68 -26 -48 -28 -62 -27 -158 1 -58 4 -125 6 -150 4 -30
1 -50 -8 -61 -28 -32 -34 -128 -15 -236 16 -90 39 -123 87 -123 20 0 35 -5 35
-12 4 -39 8 -57 18 -98 14 -54 42 -131 51 -145 4 -5 8 -29 8 -52 2 -34 -8 -57
-54 -133 -47 -75 -64 -94 -98 -110 -35 -16 -293 -115 -321 -124 -53 -16 -96
-41 -93 -55 3 -15 86 -16 961 -16 950 0 957 0 957 20 0 16 -22 30 -102 65 -56
25 -105 45 -108 46 -3 0 -12 4 -20 7 -50 21 -127 47 -138 47 -34 0 -82 48
-114 114 -18 37 -46 79 -62 93 -27 23 -28 26 -22 86 3 34 14 89 24 122 23 73
22 70 22 95 0 16 4 18 23 11 43 -16 69 7 87 79 27 103 29 214 6 259 -9 16 -14
30 -12 32 5 6 18 105 21 165 2 29 -5 85 -15 125 -24 98 -58 219 -69 244 -5 11
-19 45 -31 76 -37 96 -91 125 -175 93 l-45 -17 -63 66 c-34 36 -75 70 -90 76
-29 11 -159 15 -169 6z"/>
</g>
</svg>
